<?xml version="1.0" standalone="yes"?>

<svg version="1.1" viewBox="0.0 0.0 1415.0 852.0" fill="none" stroke="none" stroke-linecap="square" stroke-miterlimit="10" xmlns="http://www.w3.org/2000/svg" xmlns:xlink="http://www.w3.org/1999/xlink"><path d="M0 0L1415.4199 0L1415.4199 852.0866L0 852.0866Z" fill-rule="nonzero" fill="#ffffff"></path><path d="M0.21391076 829.4094L1415.206 829.4094" fill-rule="nonzero" stroke="#073763" stroke-width="2.0" stroke-linejoin="round" stroke-linecap="butt"></path><path d="M134.44489 788.8137L153.84645 788.8137L153.84645 829.3807L134.44489 829.3807Z" fill-rule="nonzero" fill="#0b5394" stroke="#0b5394" stroke-width="2.0" stroke-linejoin="round" stroke-linecap="butt"></path><path d="M153.84645 760.56177L175.01181 760.56177L175.01181 829.3807L153.84645 829.3807Z" fill-rule="nonzero" fill="#0b5394" stroke="#0b5394" stroke-width="2.0" stroke-linejoin="round" stroke-linecap="butt"></path><path d="M175.01181 716.4551L196.17717 716.4551L196.17717 829.36847L175.01181 829.36847Z" fill-rule="nonzero" fill="#0b5394" stroke="#0b5394" stroke-width="2.0" stroke-linejoin="round" stroke-linecap="butt"></path><path d="M196.17717 760.5639L217.34251 760.5639L217.34251 829.3828L196.17717 829.3828Z" fill-rule="nonzero" fill="#0b5394" stroke="#0b5394" stroke-width="2.0" stroke-linejoin="round" stroke-linecap="butt"></path><path d="M217.34251 663.52454L238.50787 663.52454L238.50787 829.3828L217.34251 829.3828Z" fill-rule="nonzero" fill="#0b5394" stroke="#0b5394" stroke-width="2.0" stroke-linejoin="round" stroke-linecap="butt"></path><path d="M238.50787 758.79767L259.67322 758.79767L259.67322 829.3803L238.50787 829.3803Z" fill-rule="nonzero" fill="#0b5394" stroke="#0b5394" stroke-width="2.0" stroke-linejoin="round" stroke-linecap="butt"></path><path d="M259.67322 704.1047L280.8386 704.1047L280.8386 829.396L259.67322 829.396Z" fill-rule="nonzero" fill="#0b5394" stroke="#0b5394" stroke-width="2.0" stroke-linejoin="round" stroke-linecap="butt"></path><path d="M280.8386 742.92126L302.00394 742.92126L302.00394 829.4094L280.8386 829.4094Z" fill-rule="nonzero" fill="#0b5394" stroke="#0b5394" stroke-width="2.0" stroke-linejoin="round" stroke-linecap="butt"></path><path d="M302.00394 746.448L323.16928 746.448L323.16928 829.37714L302.00394 829.37714Z" fill-rule="nonzero" fill="#0b5394" stroke="#0b5394" stroke-width="2.0" stroke-linejoin="round" stroke-linecap="butt"></path><path d="M323.16928 691.745L344.33466 691.745L344.33466 829.3828L323.16928 829.3828Z" fill-rule="nonzero" fill="#0b5394" stroke="#0b5394" stroke-width="2.0" stroke-linejoin="round" stroke-linecap="butt"></path><path d="M344.33466 741.1468L365.5 741.1468L365.5 829.3673L344.33466 829.3673Z" fill-rule="nonzero" fill="#0b5394" stroke="#0b5394" stroke-width="2.0" stroke-linejoin="round" stroke-linecap="butt"></path><path d="M365.5 794.077L386.66534 794.077L386.66534 829.3526L365.5 829.3526Z" fill-rule="nonzero" fill="#0b5394" stroke="#0b5394" stroke-width="2.0" stroke-linejoin="round" stroke-linecap="butt"></path><path d="M872.2192 750.8688L893.3845 750.8688L893.3845 826.7428L872.2192 826.7428Z" fill-rule="nonzero" fill="#0b5394" stroke="#0b5394" stroke-width="2.0" stroke-linejoin="round" stroke-linecap="butt"></path><path d="M893.3845 770.275L914.54987 770.275L914.54987 826.74744L893.3845 826.74744Z" fill-rule="nonzero" fill="#0b5394" stroke="#0b5394" stroke-width="2.0" stroke-linejoin="round" stroke-linecap="butt"></path><path d="M914.54987 736.754L935.7152 736.754L935.7152 826.7383L914.54987 826.7383Z" fill-rule="nonzero" fill="#0b5394" stroke="#0b5394" stroke-width="2.0" stroke-linejoin="round" stroke-linecap="butt"></path><path d="M935.7152 701.4673L956.88055 701.4673L956.88055 826.7586L935.7152 826.7586Z" fill-rule="nonzero" fill="#0b5394" stroke="#0b5394" stroke-width="2.0" stroke-linejoin="round" stroke-linecap="butt"></path><path d="M956.88055 754.3976L978.04596 754.3976L978.04596 826.7755L956.88055 826.7755Z" fill-rule="nonzero" fill="#0b5394" stroke="#0b5394" stroke-width="2.0" stroke-linejoin="round" stroke-linecap="butt"></path><path d="M978.04596 740.2803L999.2113 740.2803L999.2113 826.73694L978.04596 826.73694Z" fill-rule="nonzero" fill="#0b5394" stroke="#0b5394" stroke-width="2.0" stroke-linejoin="round" stroke-linecap="butt"></path><path d="M999.2113 770.27673L1020.37665 770.27673L1020.37665 828.51294L999.2113 828.51294Z" fill-rule="nonzero" fill="#0b5394" stroke="#0b5394" stroke-width="2.0" stroke-linejoin="round" stroke-linecap="butt"></path><path d="M1020.37665 740.2838L1041.542 740.2838L1041.542 828.5043L1020.37665 828.5043Z" fill-rule="nonzero" fill="#0b5394" stroke="#0b5394" stroke-width="2.0" stroke-linejoin="round" stroke-linecap="butt"></path><path d="M1041.542 793.2139L1062.7074 793.2139L1062.7074 828.4895L1041.542 828.4895Z" fill-rule="nonzero" fill="#0b5394" stroke="#0b5394" stroke-width="2.0" stroke-linejoin="round" stroke-linecap="butt"></path><path d="M408.34515 802.9139L429.5105 802.9139L429.5105 827.6068L408.34515 827.6068Z" fill-rule="nonzero" fill="#0b5394" stroke="#0b5394" stroke-width="2.0" stroke-linejoin="round" stroke-linecap="butt"></path><path d="M131.33727 584.4256L1253.29 582.6988" fill-rule="evenodd" stroke="#073763" stroke-width="2.0" stroke-linejoin="round" stroke-linecap="butt"></path><path d="M131.33217 581.12213L122.26107 584.4396L131.34235 587.72906Z" fill-rule="evenodd" fill="#073763" stroke="#073763" stroke-width="2.0" stroke-linecap="butt"></path><path d="M1253.2952 586.00226L1262.3662 582.6848L1253.2849 579.3953Z" fill-rule="evenodd" fill="#073763" stroke="#073763" stroke-width="2.0" stroke-linecap="butt"></path><path d="M607.57733 549.7387L607.57733 547.33246Q608.82733 545.9262 610.84296 545.9262Q611.5461 545.9262 612.3195 546.13715Q613.09296 546.3481 614.51483 546.95746Q615.32733 547.2856 615.7336 547.39496Q616.13983 547.50433 616.5461 547.50433Q617.3117 547.50433 618.1242 547.0434Q618.9367 546.58246 619.57733 545.89496L619.57733 548.37933Q618.82733 549.08246 618.0539 549.4028Q617.28046 549.7231 616.32733 549.7231Q615.6242 549.7231 614.9836 549.559Q614.34296 549.39496 612.95233 548.76996Q611.5617 548.14496 610.63983 548.14496Q609.88983 548.14496 609.22577 548.4653Q608.5617 548.7856 607.57733 549.7387ZM629.51483 556.26996L627.40546 556.26996L627.40546 542.83246Q626.65546 543.5512 625.41327 544.2778Q624.1711 545.00433 623.1867 545.3637L623.1867 543.33246Q624.96796 542.50433 626.28827 541.31683Q627.6086 540.12933 628.15546 539.01996L629.51483 539.01996L629.51483 556.26996ZM634.9367 547.8012Q634.9367 544.75433 635.5617 542.89496Q636.1867 541.0356 637.4211 540.0278Q638.65546 539.01996 640.53046 539.01996Q641.9211 539.01996 642.96014 539.57465Q643.9992 540.12933 644.6789 541.1762Q645.3586 542.2231 645.7492 543.7309Q646.13983 545.2387 646.13983 547.8012Q646.13983 550.81683 645.51483 552.6762Q644.88983 554.5356 643.65546 555.5512Q642.4211 556.56683 640.53046 556.56683Q638.0461 556.56683 636.63983 554.7856Q634.9367 552.62933 634.9367 547.8012ZM637.1086 547.8012Q637.1086 552.01996 638.09296 553.4262Q639.07733 554.83246 640.53046 554.83246Q641.9836 554.83246 642.97577 553.4262Q643.96796 552.01996 643.96796 547.8012Q643.96796 543.5512 642.97577 542.1606Q641.9836 540.76996 640.51483 540.76996Q639.0617 540.76996 638.1867 541.9887Q637.1086 543.56683 637.1086 547.8012ZM648.28046 547.8012Q648.28046 544.75433 648.90546 542.89496Q649.53046 541.0356 650.76483 540.0278Q651.9992 539.01996 653.8742 539.01996Q655.26483 539.01996 656.3039 539.57465Q657.34296 540.12933 658.02264 541.1762Q658.70233 542.2231 659.09296 543.7309Q659.4836 545.2387 659.4836 547.8012Q659.4836 550.81683 658.8586 552.6762Q658.2336 554.5356 656.9992 555.5512Q655.76483 556.56683 653.8742 556.56683Q651.38983 556.56683 649.9836 554.7856Q648.28046 552.62933 648.28046 547.8012ZM650.45233 547.8012Q650.45233 552.01996 651.4367 553.4262Q652.4211 554.83246 653.8742 554.83246Q655.32733 554.83246 656.3195 553.4262Q657.3117 552.01996 657.3117 547.8012Q657.3117 543.5512 656.3195 542.1606Q655.32733 540.76996 653.8586 540.76996Q652.40546 540.76996 651.53046 541.9887Q650.45233 543.56683 650.45233 547.8012ZM662.76483 556.26996L662.76483 553.8637L665.15546 553.8637L665.15546 556.26996Q665.15546 557.5981 664.6867 558.4106Q664.21796 559.2231 663.20233 559.6762L662.6242 558.76996Q663.28046 558.4731 663.60077 557.9028Q663.9211 557.33246 663.95233 556.26996L662.76483 556.26996ZM668.2961 547.8012Q668.2961 544.75433 668.9211 542.89496Q669.5461 541.0356 670.78046 540.0278Q672.01483 539.01996 673.88983 539.01996Q675.28046 539.01996 676.3195 539.57465Q677.3586 540.12933 678.03827 541.1762Q678.71796 542.2231 679.1086 543.7309Q679.4992 545.2387 679.4992 547.8012Q679.4992 550.81683 678.8742 552.6762Q678.2492 554.5356 677.01483 555.5512Q675.78046 556.56683 673.88983 556.56683Q671.40546 556.56683 669.9992 554.7856Q668.2961 552.62933 668.2961 547.8012ZM670.46796 547.8012Q670.46796 552.01996 671.45233 553.4262Q672.4367 554.83246 673.88983 554.83246Q675.34296 554.83246 676.33514 553.4262Q677.32733 552.01996 677.32733 547.8012Q677.32733 543.5512 676.33514 542.1606Q675.34296 540.76996 673.8742 540.76996Q672.4211 540.76996 671.5461 541.9887Q670.46796 543.56683 670.46796 547.8012ZM681.63983 547.8012Q681.63983 544.75433 682.26483 542.89496Q682.88983 541.0356 684.1242 540.0278Q685.3586 539.01996 687.2336 539.01996Q688.6242 539.01996 689.66327 539.57465Q690.70233 540.12933 691.382 541.1762Q692.0617 542.2231 692.45233 543.7309Q692.84296 545.2387 692.84296 547.8012Q692.84296 550.81683 692.21796 552.6762Q691.59296 554.5356 690.3586 555.5512Q689.1242 556.56683 687.2336 556.56683Q684.7492 556.56683 683.34296 554.7856Q681.63983 552.62933 681.63983 547.8012ZM683.8117 547.8012Q683.8117 552.01996 684.7961 553.4262Q685.78046 554.83246 687.2336 554.83246Q688.6867 554.83246 689.6789 553.4262Q690.6711 552.01996 690.6711 547.8012Q690.6711 543.5512 689.6789 542.1606Q688.6867 540.76996 687.21796 540.76996Q685.76483 540.76996 684.88983 541.9887Q683.8117 543.56683 683.8117 547.8012ZM694.9836 547.8012Q694.9836 544.75433 695.6086 542.89496Q696.2336 541.0356 697.46796 540.0278Q698.70233 539.01996 700.57733 539.01996Q701.96796 539.01996 703.007 539.57465Q704.0461 540.12933 704.72577 541.1762Q705.40546 542.2231 705.7961 543.7309Q706.1867 545.2387 706.1867 547.8012Q706.1867 550.81683 705.5617 552.6762Q704.9367 554.5356 703.70233 555.5512Q702.46796 556.56683 700.57733 556.56683Q698.09296 556.56683 696.6867 554.7856Q694.9836 552.62933 694.9836 547.8012ZM697.15546 547.8012Q697.15546 552.01996 698.13983 553.4262Q699.1242 554.83246 700.57733 554.83246Q702.03046 554.83246 703.02264 553.4262Q704.01483 552.01996 704.01483 547.8012Q704.01483 543.5512 703.02264 542.1606Q702.03046 540.76996 700.5617 540.76996Q699.1086 540.76996 698.2336 541.9887Q697.15546 543.56683 697.15546 547.8012ZM717.53046 556.26996L715.57733 556.26996L715.57733 539.08246L717.6867 539.08246L717.6867 545.2231Q719.01483 543.5356 721.09296 543.5356Q722.2336 543.5356 723.26483 544.00433Q724.2961 544.4731 724.95233 545.309Q725.6086 546.14496 725.9836 547.32465Q726.3586 548.50433 726.3586 549.8637Q726.3586 553.0512 724.78046 554.8012Q723.20233 556.5512 720.9836 556.5512Q718.78046 556.5512 717.53046 554.70746L717.53046 556.26996ZM717.4992 549.95746Q717.4992 552.19183 718.1086 553.19183Q719.1086 554.81683 720.8117 554.81683Q722.1867 554.81683 723.1945 553.6137Q724.20233 552.4106 724.20233 550.0356Q724.20233 547.5981 723.2414 546.434Q722.28046 545.26996 720.90546 545.26996Q719.51483 545.26996 718.507 546.4731Q717.4992 547.6762 717.4992 549.95746ZM737.0617 554.7387Q735.88983 555.7231 734.8039 556.13715Q733.71796 556.5512 732.4836 556.5512Q730.4367 556.5512 729.33514 555.5512Q728.2336 554.5512 728.2336 552.9887Q728.2336 552.06683 728.64764 551.31683Q729.0617 550.56683 729.7336 550.1059Q730.40546 549.64496 731.2492 549.4106Q731.8742 549.25433 733.1242 549.0981Q735.6867 548.7856 736.88983 548.3637Q736.90546 547.94183 736.90546 547.81683Q736.90546 546.5356 736.2961 546.00433Q735.4992 545.2856 733.90546 545.2856Q732.40546 545.2856 731.70233 545.809Q730.9992 546.33246 730.65546 547.6606L728.59296 547.37933Q728.8742 546.0512 729.51483 545.2387Q730.15546 544.4262 731.3742 543.9809Q732.59296 543.5356 734.20233 543.5356Q735.7961 543.5356 736.7961 543.9106Q737.7961 544.2856 738.26483 544.8559Q738.7336 545.4262 738.9211 546.3012Q739.01483 546.83246 739.01483 548.2387L739.01483 551.0512Q739.01483 553.9887 739.15546 554.76996Q739.2961 555.5512 739.6867 556.26996L737.4836 556.26996Q737.15546 555.6137 737.0617 554.7387ZM736.88983 550.01996Q735.7336 550.4887 733.4367 550.81683Q732.13983 551.00433 731.60077 551.2387Q731.0617 551.4731 730.77264 551.9262Q730.4836 552.37933 730.4836 552.9262Q730.4836 553.76996 731.1164 554.33246Q731.7492 554.89496 732.9836 554.89496Q734.20233 554.89496 735.15546 554.3637Q736.1086 553.83246 736.5461 552.9106Q736.88983 552.19183 736.88983 550.8012L736.88983 550.01996ZM741.4367 552.5512L743.53046 552.2231Q743.70233 553.4731 744.507 554.14496Q745.3117 554.81683 746.7492 554.81683Q748.20233 554.81683 748.90546 554.2231Q749.6086 553.62933 749.6086 552.83246Q749.6086 552.1137 748.9836 551.70746Q748.5617 551.4262 746.82733 550.9887Q744.51483 550.4106 743.6164 549.9809Q742.71796 549.5512 742.257 548.7934Q741.7961 548.0356 741.7961 547.12933Q741.7961 546.3012 742.1789 545.5903Q742.5617 544.87933 743.21796 544.4106Q743.70233 544.0512 744.5539 543.7934Q745.40546 543.5356 746.3742 543.5356Q747.84296 543.5356 748.95233 543.95746Q750.0617 544.37933 750.58514 545.1059Q751.1086 545.83246 751.3117 547.0356L749.2492 547.31683Q749.1086 546.3481 748.4367 545.809Q747.76483 545.26996 746.53046 545.26996Q745.07733 545.26996 744.45233 545.75433Q743.82733 546.2387 743.82733 546.87933Q743.82733 547.2856 744.09296 547.6137Q744.34296 547.95746 744.90546 548.1762Q745.21796 548.3012 746.76483 548.7231Q748.9992 549.31683 749.882 549.69965Q750.76483 550.08246 751.27264 550.809Q751.78046 551.5356 751.78046 552.6137Q751.78046 553.6606 751.16327 554.5981Q750.5461 555.5356 749.38983 556.0434Q748.2336 556.5512 746.76483 556.5512Q744.34296 556.5512 743.0695 555.5434Q741.7961 554.5356 741.4367 552.5512ZM762.8117 552.25433L764.9836 552.5356Q764.46796 554.44183 763.07733 555.4965Q761.6867 556.5512 759.51483 556.5512Q756.78046 556.5512 755.1789 554.8715Q753.57733 553.19183 753.57733 550.14496Q753.57733 547.00433 755.1945 545.26996Q756.8117 543.5356 759.38983 543.5356Q761.88983 543.5356 763.47577 545.2387Q765.0617 546.94183 765.0617 550.01996Q765.0617 550.20746 765.0461 550.58246L755.76483 550.58246Q755.8742 552.62933 756.9211 553.7231Q757.96796 554.81683 759.53046 554.81683Q760.6867 554.81683 761.507 554.20746Q762.32733 553.5981 762.8117 552.25433ZM755.8742 548.8481L762.82733 548.8481Q762.6867 547.2856 762.03046 546.4887Q761.03046 545.26996 759.4211 545.26996Q757.96796 545.26996 756.97577 546.2465Q755.9836 547.2231 755.8742 548.8481ZM766.78046 552.5512L768.8742 552.2231Q769.0461 553.4731 769.85077 554.14496Q770.65546 554.81683 772.09296 554.81683Q773.5461 554.81683 774.2492 554.2231Q774.95233 553.62933 774.95233 552.83246Q774.95233 552.1137 774.32733 551.70746Q773.90546 551.4262 772.1711 550.9887Q769.8586 550.4106 768.96014 549.9809Q768.0617 549.5512 767.60077 548.7934Q767.13983 548.0356 767.13983 547.12933Q767.13983 546.3012 767.52264 545.5903Q767.90546 544.87933 768.5617 544.4106Q769.0461 544.0512 769.89764 543.7934Q770.7492 543.5356 771.71796 543.5356Q773.1867 543.5356 774.2961 543.95746Q775.40546 544.37933 775.9289 545.1059Q776.45233 545.83246 776.65546 547.0356L774.59296 547.31683Q774.45233 546.3481 773.78046 545.809Q773.1086 545.26996 771.8742 545.26996Q770.4211 545.26996 769.7961 545.75433Q769.1711 546.2387 769.1711 546.87933Q769.1711 547.2856 769.4367 547.6137Q769.6867 547.95746 770.2492 548.1762Q770.5617 548.3012 772.1086 548.7231Q774.34296 549.31683 775.22577 549.69965Q776.1086 550.08246 776.6164 550.809Q777.1242 551.5356 777.1242 552.6137Q777.1242 553.6606 776.507 554.5981Q775.88983 555.5356 774.7336 556.0434Q773.57733 556.5512 772.1086 556.5512Q769.6867 556.5512 768.41327 555.5434Q767.13983 554.5356 766.78046 552.5512Z" fill-rule="nonzero" fill="#000000"></path><path d="M429.5105 788.8228L448.91208 788.8228L448.91208 829.3898L429.5105 829.3898Z" fill-rule="nonzero" fill="#0b5394" stroke="#0b5394" stroke-width="2.0" stroke-linejoin="round" stroke-linecap="butt"></path><path d="M448.91208 760.57086L470.07742 760.57086L470.07742 829.3898L448.91208 829.3898Z" fill-rule="nonzero" fill="#0b5394" stroke="#0b5394" stroke-width="2.0" stroke-linejoin="round" stroke-linecap="butt"></path><path d="M470.07742 716.4642L491.24277 716.4642L491.24277 829.37756L470.07742 829.37756Z" fill-rule="nonzero" fill="#0b5394" stroke="#0b5394" stroke-width="2.0" stroke-linejoin="round" stroke-linecap="butt"></path><path d="M491.24277 749.985L512.40814 749.985L512.40814 829.38654L491.24277 829.38654Z" fill-rule="nonzero" fill="#0b5394" stroke="#0b5394" stroke-width="2.0" stroke-linejoin="round" stroke-linecap="butt"></path><path d="M512.40814 785.27264L533.5735 785.27264L533.5735 829.3986L512.40814 829.3986Z" fill-rule="nonzero" fill="#0b5394" stroke="#0b5394" stroke-width="2.0" stroke-linejoin="round" stroke-linecap="butt"></path><path d="M533.5735 767.6282L554.73883 767.6282L554.73883 829.39197L533.5735 829.39197Z" fill-rule="nonzero" fill="#0b5394" stroke="#0b5394" stroke-width="2.0" stroke-linejoin="round" stroke-linecap="butt"></path><path d="M554.73883 739.3998L575.9042 739.3998L575.9042 829.38403L554.73883 829.38403Z" fill-rule="nonzero" fill="#0b5394" stroke="#0b5394" stroke-width="2.0" stroke-linejoin="round" stroke-linecap="butt"></path><path d="M575.9042 693.5287L597.0696 693.5287L597.0696 829.4027L575.9042 829.4027Z" fill-rule="nonzero" fill="#0b5394" stroke="#0b5394" stroke-width="2.0" stroke-linejoin="round" stroke-linecap="butt"></path><path d="M597.0696 760.5726L618.2349 760.5726L618.2349 829.3915L597.0696 829.3915Z" fill-rule="nonzero" fill="#0b5394" stroke="#0b5394" stroke-width="2.0" stroke-linejoin="round" stroke-linecap="butt"></path><path d="M618.2349 691.754L639.40027 691.754L639.40027 829.39185L618.2349 829.39185Z" fill-rule="nonzero" fill="#0b5394" stroke="#0b5394" stroke-width="2.0" stroke-linejoin="round" stroke-linecap="butt"></path><path d="M639.40027 741.15594L660.5656 741.15594L660.5656 829.3764L639.40027 829.3764Z" fill-rule="nonzero" fill="#0b5394" stroke="#0b5394" stroke-width="2.0" stroke-linejoin="round" stroke-linecap="butt"></path><path d="M660.5656 794.08606L681.73096 794.08606L681.73096 829.36163L660.5656 829.36163Z" fill-rule="nonzero" fill="#0b5394" stroke="#0b5394" stroke-width="2.0" stroke-linejoin="round" stroke-linecap="butt"></path><path d="M681.73096 750.8688L702.8963 750.8688L702.8963 826.7428L681.73096 826.7428Z" fill-rule="nonzero" fill="#0b5394" stroke="#0b5394" stroke-width="2.0" stroke-linejoin="round" stroke-linecap="butt"></path><path d="M702.8963 772.0388L724.0617 772.0388L724.0617 826.74744L702.8963 826.74744Z" fill-rule="nonzero" fill="#0b5394" stroke="#0b5394" stroke-width="2.0" stroke-linejoin="round" stroke-linecap="butt"></path><path d="M724.0617 750.8669L745.22705 750.8669L745.22705 826.7409L724.0617 826.7409Z" fill-rule="nonzero" fill="#0b5394" stroke="#0b5394" stroke-width="2.0" stroke-linejoin="round" stroke-linecap="butt"></path><path d="M745.22705 701.4673L766.3924 701.4673L766.3924 826.7586L745.22705 826.7586Z" fill-rule="nonzero" fill="#0b5394" stroke="#0b5394" stroke-width="2.0" stroke-linejoin="round" stroke-linecap="butt"></path><path d="M766.3924 759.6889L787.55774 759.6889L787.55774 826.7755L766.3924 826.7755Z" fill-rule="nonzero" fill="#0b5394" stroke="#0b5394" stroke-width="2.0" stroke-linejoin="round" stroke-linecap="butt"></path><path d="M787.55774 740.2803L808.7231 740.2803L808.7231 826.73694L787.55774 826.73694Z" fill-rule="nonzero" fill="#0b5394" stroke="#0b5394" stroke-width="2.0" stroke-linejoin="round" stroke-linecap="butt"></path><path d="M808.7231 773.8043L829.8884 773.8043L829.8884 828.51294L808.7231 828.51294Z" fill-rule="nonzero" fill="#0b5394" stroke="#0b5394" stroke-width="2.0" stroke-linejoin="round" stroke-linecap="butt"></path><path d="M829.8884 740.2838L851.05383 740.2838L851.05383 828.5043L829.8884 828.5043Z" fill-rule="nonzero" fill="#0b5394" stroke="#0b5394" stroke-width="2.0" stroke-linejoin="round" stroke-linecap="butt"></path><path d="M851.05383 793.2139L872.2192 793.2139L872.2192 828.4895L851.05383 828.4895Z" fill-rule="nonzero" fill="#0b5394" stroke="#0b5394" stroke-width="2.0" stroke-linejoin="round" stroke-linecap="butt"></path><path d="M1062.7074 750.8754L1083.8727 750.8754L1083.8727 826.74945L1062.7074 826.74945Z" fill-rule="nonzero" fill="#0b5394" stroke="#0b5394" stroke-width="2.0" stroke-linejoin="round" stroke-linecap="butt"></path><path d="M1083.8727 660.8932L1105.0381 660.8932L1105.0381 826.75146L1083.8727 826.75146Z" fill-rule="nonzero" fill="#0b5394" stroke="#0b5394" stroke-width="2.0" stroke-linejoin="round" stroke-linecap="butt"></path><path d="M1105.0381 694.41675L1126.2034 694.41675L1126.2034 826.7317L1105.0381 826.7317Z" fill-rule="nonzero" fill="#0b5394" stroke="#0b5394" stroke-width="2.0" stroke-linejoin="round" stroke-linecap="butt"></path><path d="M1126.2034 701.47394L1147.3688 701.47394L1147.3688 826.76526L1126.2034 826.76526Z" fill-rule="nonzero" fill="#0b5394" stroke="#0b5394" stroke-width="2.0" stroke-linejoin="round" stroke-linecap="butt"></path><path d="M1147.3688 622.0801L1168.5342 622.0801L1168.5342 826.77295L1147.3688 826.77295Z" fill-rule="nonzero" fill="#0b5394" stroke="#0b5394" stroke-width="2.0" stroke-linejoin="round" stroke-linecap="butt"></path><path d="M1168.5342 759.69366L1189.6995 759.69366L1189.6995 826.7488L1168.5342 826.7488Z" fill-rule="nonzero" fill="#0b5394" stroke="#0b5394" stroke-width="2.0" stroke-linejoin="round" stroke-linecap="butt"></path><path d="M1189.6995 757.9317L1210.8649 757.9317L1210.8649 828.51434L1189.6995 828.51434Z" fill-rule="nonzero" fill="#0b5394" stroke="#0b5394" stroke-width="2.0" stroke-linejoin="round" stroke-linecap="butt"></path><path d="M1210.8649 740.29034L1232.0302 740.29034L1232.0302 828.5108L1210.8649 828.5108Z" fill-rule="nonzero" fill="#0b5394" stroke="#0b5394" stroke-width="2.0" stroke-linejoin="round" stroke-linecap="butt"></path><path d="M1232.0302 793.2206L1253.1956 793.2206L1253.1956 828.49615L1232.0302 828.49615Z" fill-rule="nonzero" fill="#0b5394" stroke="#0b5394" stroke-width="2.0" stroke-linejoin="round" stroke-linecap="butt"></path><path d="M387.17978 740.2838L408.34515 740.2838L408.34515 828.5043L387.17978 828.5043Z" fill-rule="nonzero" fill="#0b5394" stroke="#0b5394" stroke-width="2.0" stroke-linejoin="round" stroke-linecap="butt"></path><path d="M5.9829397 353.41028L1420.9751 353.41028" fill-rule="nonzero" stroke="#073763" stroke-width="2.0" stroke-linejoin="round" stroke-linecap="butt"></path><path d="M134.44489 312.83023L153.84645 312.83023L153.84645 353.39716L134.44489 353.39716Z" fill-rule="nonzero" fill="#0b5394" stroke="#0b5394" stroke-width="2.0" stroke-linejoin="round" stroke-linecap="butt"></path><path d="M153.84645 284.57825L175.01181 284.57825L175.01181 353.39716L153.84645 353.39716Z" fill-rule="nonzero" fill="#0b5394" stroke="#0b5394" stroke-width="2.0" stroke-linejoin="round" stroke-linecap="butt"></path><path d="M175.01181 240.47154L196.17717 240.47154L196.17717 353.38492L175.01181 353.38492Z" fill-rule="nonzero" fill="#0b5394" stroke="#0b5394" stroke-width="2.0" stroke-linejoin="round" stroke-linecap="butt"></path><path d="M196.17717 171.66324L217.34251 171.66324L217.34251 353.39554L196.17717 353.39554Z" fill-rule="nonzero" fill="#0b5394" stroke="#0b5394" stroke-width="2.0" stroke-linejoin="round" stroke-linecap="butt"></path><path d="M217.34251 187.54099L238.50787 187.54099L238.50787 353.39926L217.34251 353.39926Z" fill-rule="nonzero" fill="#0b5394" stroke="#0b5394" stroke-width="2.0" stroke-linejoin="round" stroke-linecap="butt"></path><path d="M238.50787 145.19867L259.67322 145.19867L259.67322 353.38766L238.50787 353.38766Z" fill-rule="nonzero" fill="#0b5394" stroke="#0b5394" stroke-width="2.0" stroke-linejoin="round" stroke-linecap="butt"></path><path d="M259.67322 79.91892L280.8386 79.91892L280.8386 353.39923L259.67322 353.39923Z" fill-rule="nonzero" fill="#0b5394" stroke="#0b5394" stroke-width="2.0" stroke-linejoin="round" stroke-linecap="butt"></path><path d="M280.8386 122.26283L302.00394 122.26283L302.00394 353.41245L280.8386 353.41245Z" fill-rule="nonzero" fill="#0b5394" stroke="#0b5394" stroke-width="2.0" stroke-linejoin="round" stroke-linecap="butt"></path><path d="M302.00394 168.13423L323.16928 168.13423L323.16928 353.39407L302.00394 353.39407Z" fill-rule="nonzero" fill="#0b5394" stroke="#0b5394" stroke-width="2.0" stroke-linejoin="round" stroke-linecap="butt"></path><path d="M323.16928 215.76144L344.33466 215.76144L344.33466 353.39923L323.16928 353.39923Z" fill-rule="nonzero" fill="#0b5394" stroke="#0b5394" stroke-width="2.0" stroke-linejoin="round" stroke-linecap="butt"></path><path d="M344.33466 265.1633L365.5 265.1633L365.5 353.38376L344.33466 353.38376Z" fill-rule="nonzero" fill="#0b5394" stroke="#0b5394" stroke-width="2.0" stroke-linejoin="round" stroke-linecap="butt"></path><path d="M365.5 318.09348L386.66534 318.09348L386.66534 353.36905L365.5 353.36905Z" fill-rule="nonzero" fill="#0b5394" stroke="#0b5394" stroke-width="2.0" stroke-linejoin="round" stroke-linecap="butt"></path><path d="M1031.2716 275.7449L1052.437 275.7449L1052.437 351.6189L1031.2716 351.6189Z" fill-rule="nonzero" fill="#0b5394" stroke="#0b5394" stroke-width="2.0" stroke-linejoin="round" stroke-linecap="butt"></path><path d="M1052.437 185.76274L1073.6024 185.76274L1073.6024 351.621L1052.437 351.621Z" fill-rule="nonzero" fill="#0b5394" stroke="#0b5394" stroke-width="2.0" stroke-linejoin="round" stroke-linecap="butt"></path><path d="M1073.6024 143.42043L1094.7677 143.42043L1094.7677 351.6094L1073.6024 351.6094Z" fill-rule="nonzero" fill="#0b5394" stroke="#0b5394" stroke-width="2.0" stroke-linejoin="round" stroke-linecap="butt"></path><path d="M1094.7677 226.34338L1115.9331 226.34338L1115.9331 351.6347L1094.7677 351.6347Z" fill-rule="nonzero" fill="#0b5394" stroke="#0b5394" stroke-width="2.0" stroke-linejoin="round" stroke-linecap="butt"></path><path d="M1115.9331 146.94958L1137.0984 146.94958L1137.0984 351.6425L1115.9331 351.6425Z" fill-rule="nonzero" fill="#0b5394" stroke="#0b5394" stroke-width="2.0" stroke-linejoin="round" stroke-linecap="butt"></path><path d="M1137.0984 134.59752L1158.2638 134.59752L1158.2638 351.6054L1137.0984 351.6054Z" fill-rule="nonzero" fill="#0b5394" stroke="#0b5394" stroke-width="2.0" stroke-linejoin="round" stroke-linecap="butt"></path><path d="M1158.2638 124.01343L1179.4291 124.01343L1179.4291 353.39926L1158.2638 353.39926Z" fill-rule="nonzero" fill="#0b5394" stroke="#0b5394" stroke-width="2.0" stroke-linejoin="round" stroke-linecap="butt"></path><path d="M1179.4291 265.15985L1200.5945 265.15985L1200.5945 353.38034L1179.4291 353.38034Z" fill-rule="nonzero" fill="#0b5394" stroke="#0b5394" stroke-width="2.0" stroke-linejoin="round" stroke-linecap="butt"></path><path d="M1200.5945 318.09003L1221.7599 318.09003L1221.7599 353.3656L1200.5945 353.3656Z" fill-rule="nonzero" fill="#0b5394" stroke="#0b5394" stroke-width="2.0" stroke-linejoin="round" stroke-linecap="butt"></path><path d="M906.2507 326.91464L927.416 326.91464L927.416 351.60757L906.2507 351.60757Z" fill-rule="nonzero" fill="#0b5394" stroke="#0b5394" stroke-width="2.0" stroke-linejoin="round" stroke-linecap="butt"></path><path d="M927.416 326.91464L948.58136 326.91464L948.58136 351.60757L927.416 351.60757Z" fill-rule="nonzero" fill="#0b5394" stroke="#0b5394" stroke-width="2.0" stroke-linejoin="round" stroke-linecap="butt"></path><path d="M948.58136 326.91464L969.7467 326.91464L969.7467 351.60757L948.58136 351.60757Z" fill-rule="nonzero" fill="#0b5394" stroke="#0b5394" stroke-width="2.0" stroke-linejoin="round" stroke-linecap="butt"></path><path d="M414.11417 326.91464L435.27954 326.91464L435.27954 351.60757L414.11417 351.60757Z" fill-rule="nonzero" fill="#0b5394" stroke="#0b5394" stroke-width="2.0" stroke-linejoin="round" stroke-linecap="butt"></path><path d="M91.2741 65.22258L396.34534 63.587433" fill-rule="evenodd" stroke="#073763" stroke-width="2.0" stroke-linejoin="round" stroke-linecap="butt"></path><path d="M91.2564 61.91916L82.19804 65.271225L91.29181 68.52599Z" fill-rule="evenodd" fill="#073763" stroke="#073763" stroke-width="2.0" stroke-linecap="butt"></path><path d="M396.36304 66.89085L405.4214 63.538784L396.3276 60.28401Z" fill-rule="evenodd" fill="#073763" stroke="#073763" stroke-width="2.0" stroke-linecap="butt"></path><path d="M188.94627 32.58205L191.05565 32.3008Q191.41502 34.08205 192.29002 34.878925Q193.16502 35.6758 194.41502 35.6758Q195.8994 35.6758 196.92284 34.64455Q197.94627 33.6133 197.94627 32.08205Q197.94627 30.628923 197.00096 29.68361Q196.05565 28.738298 194.5869 28.738298Q193.99315 28.738298 193.10252 28.972673L193.3369 27.128923Q193.54002 27.144548 193.68065 27.144548Q195.0244 27.144548 196.10252 26.441423Q197.18065 25.738298 197.18065 24.285173Q197.18065 23.113298 196.39159 22.355486Q195.60252 21.597673 194.36815 21.597673Q193.13377 21.597673 192.31346 22.37111Q191.49315 23.144548 191.25877 24.691423L189.1494 24.316423Q189.54002 22.191423 190.90721 21.02736Q192.2744 19.863298 194.32127 19.863298Q195.72752 19.863298 196.90721 20.46486Q198.0869 21.066423 198.71971 22.113298Q199.35252 23.160173 199.35252 24.332048Q199.35252 25.441423 198.75096 26.355486Q198.1494 27.269548 196.97752 27.800798Q198.50877 28.160173 199.35252 29.269548Q200.19627 30.378923 200.19627 32.035175Q200.19627 34.285175 198.55565 35.855488Q196.91502 37.4258 194.3994 37.4258Q192.13377 37.4258 190.64159 36.074238Q189.1494 34.722675 188.94627 32.58205ZM202.29002 28.644548Q202.29002 25.597673 202.91502 23.738298Q203.54002 21.878923 204.7744 20.87111Q206.00877 19.863298 207.88377 19.863298Q209.2744 19.863298 210.31346 20.417986Q211.35252 20.972673 212.03221 22.019548Q212.7119 23.066423 213.10252 24.574236Q213.49315 26.082048 213.49315 28.644548Q213.49315 31.660173 212.86815 33.51955Q212.24315 35.378925 211.00877 36.39455Q209.7744 37.410175 207.88377 37.410175Q205.3994 37.410175 203.99315 35.628925Q202.29002 33.472675 202.29002 28.644548ZM204.4619 28.644548Q204.4619 32.8633 205.44627 34.26955Q206.43065 35.6758 207.88377 35.6758Q209.3369 35.6758 210.32909 34.26955Q211.32127 32.8633 211.32127 28.644548Q211.32127 24.394548 210.32909 23.003923Q209.3369 21.613298 207.86815 21.613298Q206.41502 21.613298 205.54002 22.832048Q204.4619 24.410173 204.4619 28.644548ZM215.63377 28.644548Q215.63377 25.597673 216.25877 23.738298Q216.88377 21.878923 218.11815 20.87111Q219.35252 19.863298 221.22752 19.863298Q222.61815 19.863298 223.65721 20.417986Q224.69627 20.972673 225.37596 22.019548Q226.05565 23.066423 226.44627 24.574236Q226.8369 26.082048 226.8369 28.644548Q226.8369 31.660173 226.2119 33.51955Q225.5869 35.378925 224.35252 36.39455Q223.11815 37.410175 221.22752 37.410175Q218.74315 37.410175 217.3369 35.628925Q215.63377 33.472675 215.63377 28.644548ZM217.80565 28.644548Q217.80565 32.8633 218.79002 34.26955Q219.7744 35.6758 221.22752 35.6758Q222.68065 35.6758 223.67284 34.26955Q224.66502 32.8633 224.66502 28.644548Q224.66502 24.394548 223.67284 23.003923Q222.68065 21.613298 221.2119 21.613298Q219.75877 21.613298 218.88377 22.832048Q217.80565 24.410173 217.80565 28.644548ZM238.18065 37.1133L236.22752 37.1133L236.22752 19.925798L238.3369 19.925798L238.3369 26.066423Q239.66502 24.378923 241.74315 24.378923Q242.88377 24.378923 243.91502 24.847673Q244.94627 25.316423 245.60252 26.15236Q246.25877 26.988298 246.63377 28.167986Q247.00877 29.347673 247.00877 30.707048Q247.00877 33.89455 245.43065 35.64455Q243.85252 37.39455 241.63377 37.39455Q239.43065 37.39455 238.18065 35.5508L238.18065 37.1133ZM238.1494 30.800798Q238.1494 33.035175 238.75877 34.035175Q239.75877 35.660175 241.4619 35.660175Q242.8369 35.660175 243.84471 34.45705Q244.85252 33.253925 244.85252 30.878923Q244.85252 28.441423 243.89159 27.27736Q242.93065 26.113298 241.55565 26.113298Q240.16502 26.113298 239.15721 27.316423Q238.1494 28.519548 238.1494 30.800798ZM257.6963 35.58205Q256.5244 36.566425 255.43846 36.980488Q254.35252 37.39455 253.11815 37.39455Q251.07127 37.39455 249.96971 36.39455Q248.86815 35.39455 248.86815 33.83205Q248.86815 32.910175 249.28221 32.160175Q249.69627 31.410173 250.36815 30.949236Q251.04002 30.488298 251.88377 30.253923Q252.50877 30.097673 253.75877 29.941423Q256.3213 29.628923 257.5244 29.207048Q257.54004 28.785173 257.54004 28.660173Q257.54004 27.378923 256.93066 26.847673Q256.1338 26.128923 254.54002 26.128923Q253.04002 26.128923 252.3369 26.65236Q251.63377 27.175798 251.29002 28.503923L249.22752 28.222673Q249.50877 26.894548 250.1494 26.082048Q250.79002 25.269548 252.00877 24.824236Q253.22752 24.378923 254.8369 24.378923Q256.43066 24.378923 257.43066 24.753923Q258.43066 25.128923 258.8994 25.699236Q259.36816 26.269548 259.55566 27.144548Q259.6494 27.675798 259.6494 29.082048L259.6494 31.894548Q259.6494 34.83205 259.79004 35.6133Q259.93066 36.39455 260.3213 37.1133L258.11816 37.1133Q257.79004 36.45705 257.6963 35.58205ZM257.5244 30.863298Q256.36816 31.332048 254.07127 31.660173Q252.7744 31.847673 252.23534 32.08205Q251.69627 32.316425 251.40721 32.76955Q251.11815 33.222675 251.11815 33.76955Q251.11815 34.6133 251.75096 35.1758Q252.38377 35.7383 253.61815 35.7383Q254.8369 35.7383 255.79002 35.20705Q256.74316 34.6758 257.18066 33.753925Q257.5244 33.035175 257.5244 31.644548L257.5244 30.863298ZM262.0713 33.39455L264.16504 33.066425Q264.3369 34.316425 265.1416 34.9883Q265.9463 35.660175 267.3838 35.660175Q268.8369 35.660175 269.54004 35.066425Q270.24316 34.472675 270.24316 33.6758Q270.24316 32.95705 269.61816 32.5508Q269.1963 32.26955 267.4619 31.832048Q265.1494 31.253923 264.25098 30.824236Q263.35254 30.394548 262.8916 29.636736Q262.43066 28.878923 262.43066 27.972673Q262.43066 27.144548 262.81348 26.43361Q263.1963 25.722673 263.85254 25.253923Q264.3369 24.894548 265.18848 24.636736Q266.04004 24.378923 267.0088 24.378923Q268.47754 24.378923 269.5869 24.800798Q270.6963 25.222673 271.21973 25.949236Q271.74316 26.675798 271.9463 27.878923L269.8838 28.160173Q269.74316 27.191423 269.0713 26.65236Q268.3994 26.113298 267.16504 26.113298Q265.7119 26.113298 265.0869 26.597673Q264.4619 27.082048 264.4619 27.722673Q264.4619 28.128923 264.72754 28.457048Q264.97754 28.800798 265.54004 29.019548Q265.85254 29.144548 267.3994 29.566423Q269.6338 30.160173 270.5166 30.542986Q271.3994 30.925798 271.90723 31.65236Q272.41504 32.378925 272.41504 33.45705Q272.41504 34.503925 271.79785 35.441425Q271.18066 36.378925 270.0244 36.886738Q268.86816 37.39455 267.3994 37.39455Q264.97754 37.39455 263.7041 36.386738Q262.43066 35.378925 262.0713 33.39455ZM283.4463 33.097675L285.61816 33.378925Q285.10254 35.285175 283.7119 36.339863Q282.3213 37.39455 280.1494 37.39455Q277.41504 37.39455 275.81348 35.714863Q274.2119 34.035175 274.2119 30.988298Q274.2119 27.847673 275.8291 26.113298Q277.4463 24.378923 280.0244 24.378923Q282.5244 24.378923 284.11035 26.082048Q285.6963 27.785173 285.6963 30.863298Q285.6963 31.050798 285.68066 31.425798L276.3994 31.425798Q276.5088 33.472675 277.55566 34.566425Q278.60254 35.660175 280.16504 35.660175Q281.3213 35.660175 282.1416 35.0508Q282.9619 34.441425 283.4463 33.097675ZM276.5088 29.691423L283.4619 29.691423Q283.3213 28.128923 282.66504 27.332048Q281.66504 26.113298 280.05566 26.113298Q278.60254 26.113298 277.61035 27.08986Q276.61816 28.066423 276.5088 29.691423ZM287.43066 33.39455L289.5244 33.066425Q289.6963 34.316425 290.50098 34.9883Q291.30566 35.660175 292.74316 35.660175Q294.1963 35.660175 294.8994 35.066425Q295.60254 34.472675 295.60254 33.6758Q295.60254 32.95705 294.97754 32.5508Q294.55566 32.26955 292.8213 31.832048Q290.5088 31.253923 289.61035 30.824236Q288.7119 30.394548 288.25098 29.636736Q287.79004 28.878923 287.79004 27.972673Q287.79004 27.144548 288.17285 26.43361Q288.55566 25.722673 289.2119 25.253923Q289.6963 24.894548 290.54785 24.636736Q291.3994 24.378923 292.36816 24.378923Q293.8369 24.378923 294.9463 24.800798Q296.05566 25.222673 296.5791 25.949236Q297.10254 26.675798 297.30566 27.878923L295.24316 28.160173Q295.10254 27.191423 294.43066 26.65236Q293.7588 26.113298 292.5244 26.113298Q291.0713 26.113298 290.4463 26.597673Q289.8213 27.082048 289.8213 27.722673Q289.8213 28.128923 290.0869 28.457048Q290.3369 28.800798 290.8994 29.019548Q291.2119 29.144548 292.7588 29.566423Q294.99316 30.160173 295.87598 30.542986Q296.7588 30.925798 297.2666 31.65236Q297.7744 32.378925 297.7744 33.45705Q297.7744 34.503925 297.15723 35.441425Q296.54004 36.378925 295.3838 36.886738Q294.22754 37.39455 292.7588 37.39455Q290.3369 37.39455 289.06348 36.386738Q287.79004 35.378925 287.43066 33.39455Z" fill-rule="nonzero" fill="#000000"></path><path d="M1074.7542 28.015625L1074.7542 30.046875L1063.4104 30.046875Q1063.3792 29.28125 1063.6448 28.578125Q1064.0823 27.421875 1065.0354 26.296875Q1065.9885 25.171875 1067.801 23.6875Q1070.5979 21.390625 1071.5823 20.054688Q1072.5667 18.71875 1072.5667 17.515625Q1072.5667 16.265625 1071.6682 15.40625Q1070.7698 14.546875 1069.3323 14.546875Q1067.8167 14.546875 1066.9026 15.4609375Q1065.9885 16.375 1065.9729 17.984375L1063.801 17.765625Q1064.0198 15.34375 1065.4729 14.0703125Q1066.926 12.796875 1069.3792 12.796875Q1071.8479 12.796875 1073.2932 14.1640625Q1074.7385 15.53125 1074.7385 17.5625Q1074.7385 18.59375 1074.3167 19.59375Q1073.8948 20.59375 1072.9182 21.695312Q1071.9417 22.796875 1069.6604 24.71875Q1067.7698 26.3125 1067.2307 26.875Q1066.6917 27.4375 1066.3323 28.015625L1074.7542 28.015625ZM1084.9729 30.046875L1082.8635 30.046875L1082.8635 16.609375Q1082.1135 17.328125 1080.8713 18.054688Q1079.6292 18.78125 1078.6448 19.140625L1078.6448 17.109375Q1080.426 16.28125 1081.7463 15.09375Q1083.0667 13.90625 1083.6135 12.796875L1084.9729 12.796875L1084.9729 30.046875ZM1090.3792 21.578125Q1090.3792 18.53125 1091.0042 16.671875Q1091.6292 14.8125 1092.8635 13.8046875Q1094.0979 12.796875 1095.9729 12.796875Q1097.3635 12.796875 1098.4026 13.3515625Q1099.4417 13.90625 1100.1213 14.953125Q1100.801 16.0 1101.1917 17.507812Q1101.5823 19.015625 1101.5823 21.578125Q1101.5823 24.59375 1100.9573 26.453125Q1100.3323 28.3125 1099.0979 29.328125Q1097.8635 30.34375 1095.9729 30.34375Q1093.4885 30.34375 1092.0823 28.5625Q1090.3792 26.40625 1090.3792 21.578125ZM1092.551 21.578125Q1092.551 25.796875 1093.5354 27.203125Q1094.5198 28.609375 1095.9729 28.609375Q1097.426 28.609375 1098.4182 27.203125Q1099.4104 25.796875 1099.4104 21.578125Q1099.4104 17.328125 1098.4182 15.9375Q1097.426 14.546875 1095.9573 14.546875Q1094.5042 14.546875 1093.6292 15.765625Q1092.551 17.34375 1092.551 21.578125ZM1112.926 30.046875L1110.9729 30.046875L1110.9729 12.859375L1113.0823 12.859375L1113.0823 19.0Q1114.4104 17.3125 1116.4885 17.3125Q1117.6292 17.3125 1118.6604 17.78125Q1119.6917 18.25 1120.3479 19.085938Q1121.0042 19.921875 1121.3792 21.101562Q1121.7542 22.28125 1121.7542 23.640625Q1121.7542 26.828125 1120.176 28.578125Q1118.5979 30.328125 1116.3792 30.328125Q1114.176 30.328125 1112.926 28.484375L1112.926 30.046875ZM1112.8948 23.734375Q1112.8948 25.96875 1113.5042 26.96875Q1114.5042 28.59375 1116.2073 28.59375Q1117.5823 28.59375 1118.5901 27.390625Q1119.5979 26.1875 1119.5979 23.8125Q1119.5979 21.375 1118.637 20.210938Q1117.676 19.046875 1116.301 19.046875Q1114.9104 19.046875 1113.9026 20.25Q1112.8948 21.453125 1112.8948 23.734375ZM1132.4417 28.515625Q1131.2698 29.5 1130.1838 29.914062Q1129.0979 30.328125 1127.8635 30.328125Q1125.8167 30.328125 1124.7151 29.328125Q1123.6135 28.328125 1123.6135 26.765625Q1123.6135 25.84375 1124.0276 25.09375Q1124.4417 24.34375 1125.1135 23.882812Q1125.7854 23.421875 1126.6292 23.1875Q1127.2542 23.03125 1128.5042 22.875Q1131.0667 22.5625 1132.2698 22.140625Q1132.2854 21.71875 1132.2854 21.59375Q1132.2854 20.3125 1131.676 19.78125Q1130.8792 19.0625 1129.2854 19.0625Q1127.7854 19.0625 1127.0823 19.585938Q1126.3792 20.109375 1126.0354 21.4375L1123.9729 21.15625Q1124.2542 19.828125 1124.8948 19.015625Q1125.5354 18.203125 1126.7542 17.757812Q1127.9729 17.3125 1129.5823 17.3125Q1131.176 17.3125 1132.176 17.6875Q1133.176 18.0625 1133.6448 18.632812Q1134.1135 19.203125 1134.301 20.078125Q1134.3948 20.609375 1134.3948 22.015625L1134.3948 24.828125Q1134.3948 27.765625 1134.5354 28.546875Q1134.676 29.328125 1135.0667 30.046875L1132.8635 30.046875Q1132.5354 29.390625 1132.4417 28.515625ZM1132.2698 23.796875Q1131.1135 24.265625 1128.8167 24.59375Q1127.5198 24.78125 1126.9807 25.015625Q1126.4417 25.25 1126.1526 25.703125Q1125.8635 26.15625 1125.8635 26.703125Q1125.8635 27.546875 1126.4963 28.109375Q1127.1292 28.671875 1128.3635 28.671875Q1129.5823 28.671875 1130.5354 28.140625Q1131.4885 27.609375 1131.926 26.6875Q1132.2698 25.96875 1132.2698 24.578125L1132.2698 23.796875ZM1136.8167 26.328125L1138.9104 26.0Q1139.0823 27.25 1139.887 27.921875Q1140.6917 28.59375 1142.1292 28.59375Q1143.5823 28.59375 1144.2854 28.0Q1144.9885 27.40625 1144.9885 26.609375Q1144.9885 25.890625 1144.3635 25.484375Q1143.9417 25.203125 1142.2073 24.765625Q1139.8948 24.1875 1138.9963 23.757812Q1138.0979 23.328125 1137.637 22.570312Q1137.176 21.8125 1137.176 20.90625Q1137.176 20.078125 1137.5588 19.367188Q1137.9417 18.65625 1138.5979 18.1875Q1139.0823 17.828125 1139.9338 17.570312Q1140.7854 17.3125 1141.7542 17.3125Q1143.2229 17.3125 1144.3323 17.734375Q1145.4417 18.15625 1145.9651 18.882812Q1146.4885 19.609375 1146.6917 20.8125L1144.6292 21.09375Q1144.4885 20.125 1143.8167 19.585938Q1143.1448 19.046875 1141.9104 19.046875Q1140.4573 19.046875 1139.8323 19.53125Q1139.2073 20.015625 1139.2073 20.65625Q1139.2073 21.0625 1139.4729 21.390625Q1139.7229 21.734375 1140.2854 21.953125Q1140.5979 22.078125 1142.1448 22.5Q1144.3792 23.09375 1145.262 23.476562Q1146.1448 23.859375 1146.6526 24.585938Q1147.1604 25.3125 1147.1604 26.390625Q1147.1604 27.4375 1146.5432 28.375Q1145.926 29.3125 1144.7698 29.820312Q1143.6135 30.328125 1142.1448 30.328125Q1139.7229 30.328125 1138.4495 29.320312Q1137.176 28.3125 1136.8167 26.328125ZM1158.1917 26.03125L1160.3635 26.3125Q1159.8479 28.21875 1158.4573 29.273438Q1157.0667 30.328125 1154.8948 30.328125Q1152.1604 30.328125 1150.5588 28.648438Q1148.9573 26.96875 1148.9573 23.921875Q1148.9573 20.78125 1150.5745 19.046875Q1152.1917 17.3125 1154.7698 17.3125Q1157.2698 17.3125 1158.8557 19.015625Q1160.4417 20.71875 1160.4417 23.796875Q1160.4417 23.984375 1160.426 24.359375L1151.1448 24.359375Q1151.2542 26.40625 1152.301 27.5Q1153.3479 28.59375 1154.9104 28.59375Q1156.0667 28.59375 1156.887 27.984375Q1157.7073 27.375 1158.1917 26.03125ZM1151.2542 22.625L1158.2073 22.625Q1158.0667 21.0625 1157.4104 20.265625Q1156.4104 19.046875 1154.801 19.046875Q1153.3479 19.046875 1152.3557 20.023438Q1151.3635 21.0 1151.2542 22.625ZM1162.176 26.328125L1164.2698 26.0Q1164.4417 27.25 1165.2463 27.921875Q1166.051 28.59375 1167.4885 28.59375Q1168.9417 28.59375 1169.6448 28.0Q1170.3479 27.40625 1170.3479 26.609375Q1170.3479 25.890625 1169.7229 25.484375Q1169.301 25.203125 1167.5667 24.765625Q1165.2542 24.1875 1164.3557 23.757812Q1163.4573 23.328125 1162.9963 22.570312Q1162.5354 21.8125 1162.5354 20.90625Q1162.5354 20.078125 1162.9182 19.367188Q1163.301 18.65625 1163.9573 18.1875Q1164.4417 17.828125 1165.2932 17.570312Q1166.1448 17.3125 1167.1135 17.3125Q1168.5823 17.3125 1169.6917 17.734375Q1170.801 18.15625 1171.3245 18.882812Q1171.8479 19.609375 1172.051 20.8125L1169.9885 21.09375Q1169.8479 20.125 1169.176 19.585938Q1168.5042 19.046875 1167.2698 19.046875Q1165.8167 19.046875 1165.1917 19.53125Q1164.5667 20.015625 1164.5667 20.65625Q1164.5667 21.0625 1164.8323 21.390625Q1165.0823 21.734375 1165.6448 21.953125Q1165.9573 22.078125 1167.5042 22.5Q1169.7385 23.09375 1170.6213 23.476562Q1171.5042 23.859375 1172.012 24.585938Q1172.5198 25.3125 1172.5198 26.390625Q1172.5198 27.4375 1171.9026 28.375Q1171.2854 29.3125 1170.1292 29.820312Q1168.9729 30.328125 1167.5042 30.328125Q1165.0823 30.328125 1163.8088 29.320312Q1162.5354 28.3125 1162.176 26.328125Z" fill-rule="nonzero" fill="#000000"></path><path d="M1023.78345 67.930725L1212.3503 67.930725" fill-rule="evenodd" stroke="#073763" stroke-width="2.0" stroke-linejoin="round" stroke-linecap="butt"></path><path d="M1023.78345 64.62726L1014.7073 67.930725L1023.78345 71.23419Z" fill-rule="evenodd" fill="#073763" stroke="#073763" stroke-width="2.0" stroke-linecap="butt"></path><path d="M1212.3503 71.23419L1221.4265 67.930725L1212.3503 64.62726Z" fill-rule="evenodd" fill="#073763" stroke="#073763" stroke-width="2.0" stroke-linecap="butt"></path><path d="M702.8963 326.91464L724.0617 326.91464L724.0617 351.60757L702.8963 351.60757Z" fill-rule="nonzero" fill="#0b5394" stroke="#0b5394" stroke-width="2.0" stroke-linejoin="round" stroke-linecap="butt"></path><path d="M1389.9094 326.91464L1411.0748 326.91464L1411.0748 351.60757L1389.9094 351.60757Z" fill-rule="nonzero" fill="#0b5394" stroke="#0b5394" stroke-width="2.0" stroke-linejoin="round" stroke-linecap="butt"></path><path d="M40.843586 47.783997L37.85921 47.252747Q38.35921 45.440247 39.585773 44.57306Q40.812336 43.70587 43.249836 43.70587Q45.45296 43.70587 46.531086 44.22931Q47.60921 44.752747 48.04671 45.557434Q48.48421 46.36212 48.48421 48.502747L48.45296 52.346497Q48.45296 53.98712 48.60921 54.76837Q48.76546 55.54962 49.20296 56.440247L45.937336 56.440247Q45.812336 56.11212 45.624836 55.471497Q45.54671 55.17462 45.499836 55.08087Q44.656086 55.89337 43.69515 56.307434Q42.73421 56.721497 41.656086 56.721497Q39.73421 56.721497 38.624836 55.67462Q37.51546 54.627747 37.51546 53.033997Q37.51546 51.98712 38.01546 51.158997Q38.51546 50.33087 39.429523 49.89337Q40.343586 49.45587 42.04671 49.127747Q44.35921 48.690247 45.249836 48.315247L45.249836 47.98712Q45.249836 47.033997 44.781086 46.63556Q44.312336 46.23712 43.01546 46.23712Q42.124836 46.23712 41.63265 46.58087Q41.14046 46.92462 40.843586 47.783997ZM45.249836 50.45587Q44.60921 50.67462 43.242023 50.963684Q41.874836 51.252747 41.45296 51.533997Q40.812336 52.002747 40.812336 52.70587Q40.812336 53.39337 41.32796 53.89337Q41.843586 54.39337 42.64046 54.39337Q43.531086 54.39337 44.32796 53.815247Q44.937336 53.36212 45.124836 52.721497Q45.249836 52.29962 45.249836 51.11212L45.249836 50.45587Z" fill-rule="nonzero" fill="#000000"></path><path d="M37.57796 556.267L37.57796 539.0795L40.874836 539.0795L40.874836 545.267Q42.406086 543.53265 44.48421 543.53265Q46.76546 543.53265 48.249836 545.1811Q49.73421 546.8295 49.73421 549.90765Q49.73421 553.09515 48.218586 554.8217Q46.70296 556.5483 44.531086 556.5483Q43.468586 556.5483 42.429523 556.017Q41.39046 555.4858 40.64046 554.4389L40.64046 556.267L37.57796 556.267ZM40.85921 549.767Q40.85921 551.7045 41.468586 552.6264Q42.312336 553.9389 43.73421 553.9389Q44.82796 553.9389 45.593586 553.0092Q46.35921 552.0795 46.35921 550.0795Q46.35921 547.9389 45.585773 547.0014Q44.812336 546.0639 43.60921 546.0639Q42.42171 546.0639 41.64046 546.97797Q40.85921 547.892 40.85921 549.767Z" fill-rule="nonzero" fill="#000000"></path></svg>

